<svg width="30" height="30" viewBox="0 0 30 30" fill="none" xmlns="http://www.w3.org/2000/svg">
<path d="M13.885 19.9362C13.6573 20.1538 13.5313 20.4452 13.5342 20.7478C13.537 21.0503 13.6685 21.3397 13.9002 21.5536C14.132 21.7676 14.4455 21.8889 14.7732 21.8915C15.101 21.8942 15.4167 21.7779 15.6525 21.5677L22.32 15.39C22.3782 15.3364 22.4244 15.2727 22.4559 15.2027C22.4874 15.1326 22.5036 15.0574 22.5036 14.9815C22.5036 14.9057 22.4874 14.8305 22.4559 14.7604C22.4244 14.6903 22.3782 14.6267 22.32 14.5731L15.6525 8.39769C15.4167 8.18751 15.101 8.07121 14.7732 8.07384C14.4455 8.07647 14.132 8.19781 13.9002 8.41175C13.6685 8.62568 13.537 8.91508 13.5342 9.21761C13.5313 9.52015 13.6573 9.81161 13.885 10.0292L18 13.8462H1.25C0.918479 13.8462 0.600537 13.9677 0.366116 14.1841C0.131696 14.4005 0 14.694 0 15C0 15.306 0.131696 15.5995 0.366116 15.8159C0.600537 16.0323 0.918479 16.1538 1.25 16.1538H18L13.885 19.9362ZM27.5 0H11.25C10.9185 0 10.6005 0.121566 10.3661 0.337954C10.1317 0.554342 10 0.847827 10 1.15385C10 1.45987 10.1317 1.75335 10.3661 1.96974C10.6005 2.18613 10.9185 2.30769 11.25 2.30769H26.25C26.5815 2.30769 26.8995 2.42926 27.1339 2.64565C27.3683 2.86203 27.5 3.15552 27.5 3.46154V26.5385C27.5 26.8445 27.3683 27.138 27.1339 27.3544C26.8995 27.5707 26.5815 27.6923 26.25 27.6923H10.625C10.2935 27.6923 9.97554 27.8139 9.74112 28.0303C9.5067 28.2466 9.375 28.5401 9.375 28.8462C9.375 29.1522 9.5067 29.4457 9.74112 29.662C9.97554 29.8784 10.2935 30 10.625 30H27.5C28.163 30 28.7989 29.7569 29.2678 29.3241C29.7366 28.8913 30 28.3043 30 27.6923V2.30769C30 1.69565 29.7366 1.10868 29.2678 0.675907C28.7989 0.243131 28.163 0 27.5 0Z" fill="#212223"/>
</svg>
