<svg width="15" height="16" viewBox="0 0 15 16" fill="none" xmlns="http://www.w3.org/2000/svg">
<path d="M7.5 15.3035C6.01664 15.3035 4.56659 14.8547 3.33323 14.0139C2.09986 13.1731 1.13856 11.9781 0.570907 10.5799C0.00324962 9.18176 -0.145275 7.64325 0.144114 6.15896C0.433503 4.67467 1.14781 3.31126 2.1967 2.24114C3.2456 1.17103 4.58197 0.442273 6.03682 0.147029C7.49168 -0.148214 8.99968 0.00331537 10.3701 0.582457C11.7406 1.1616 12.9119 2.14234 13.736 3.40066C14.5601 4.65898 15 6.13837 15 7.65174C15 9.6811 14.2098 11.6273 12.8033 13.0623C11.3968 14.4973 9.48913 15.3035 7.5 15.3035ZM7.5 1.09311C6.22855 1.09311 4.98565 1.47776 3.92848 2.19844C2.87131 2.91911 2.04734 3.94343 1.56078 5.14186C1.07421 6.34029 0.946907 7.65901 1.19495 8.93126C1.443 10.2035 2.05526 11.3721 2.95432 12.2894C3.85337 13.2066 4.99883 13.8313 6.24585 14.0843C7.49287 14.3374 8.78544 14.2075 9.96011 13.7111C11.1348 13.2147 12.1388 12.3741 12.8452 11.2955C13.5515 10.217 13.9286 8.94891 13.9286 7.65174C13.9286 5.91228 13.2513 4.24407 12.0457 3.01409C10.8401 1.7841 9.20496 1.09311 7.5 1.09311Z" fill="#212223"/>
<path d="M9.39571 11.2225L7 8.18086V3.06067H7.85714V7.72924L10 10.4553L9.39571 11.2225Z" fill="black"/>
</svg>
